{"extensionsUsed" : ["KHR_materials_pbrSpecularGlossiness"], "accessors" : [{"bufferView" : 0, "byteOffset" : 0, "componentType" : 5123, "count" : 8124, "type" : "SCALAR", "max" : [8123], "min" : [0]}, {"bufferView" : 1, "byteOffset" : 0, "componentType" : 5126, "count" : 8124, "type" : "VEC3", "max" : [599.4400024414062, 627, 232.97999572753906], "min" : [-0.019999999552965164, 0, 0]}, {"bufferView" : 1, "byteOffset" : 12, "componentType" : 5126, "count" : 8124, "type" : "VEC3", "max" : [0.9990551471710205, 0.9998614192008972, 0.9998443126678467], "min" : [-0.9990213513374329, -0.9994311928749084, -1.0000044107437134]}, {"bufferView" : 0, "byteOffset" : 16248, "componentType" : 5123, "count" : 11778, "type" : "SCALAR", "max" : [11777], "min" : [0]}, {"bufferView" : 6, "byteOffset" : 0, "componentType" : 5126, "count" : 11778, "type" : "VEC3", "max" : [599.9400024414062, 1218.4200439453125, 268.29998779296875], "min" : [11.34000015258789, 619.6199951171875, 0]}, {"bufferView" : 6, "byteOffset" : 12, "componentType" : 5126, "count" : 11778, "type" : "VEC3", "max" : [0.9995876550674438, 0.9999366402626038, 1.0000038146972656], "min" : [-0.9995890259742737, -0.9999163746833801, -1.0000044107437134]}], "asset" : {"generator" : "Aspose.3D 20.11", "version" : "2.0"}, "buffers" : [{"uri" : "buffer.bin", "byteLength" : 518776}], "bufferViews" : [{"buffer" : 0, "byteOffset" : 0, "byteLength" : 39804, "target" : 34963}, {"buffer" : 0, "byteOffset" : 39808, "byteLength" : 194976, "byteStride" : 24, "target" : 34962}, {"buffer" : 0, "byteOffset" : 234788, "byteLength" : 163}, {"buffer" : 0, "byteOffset" : 234952, "byteLength" : 163}, {"buffer" : 0, "byteOffset" : 235116, "byteLength" : 163}, {"buffer" : 0, "byteOffset" : 235280, "byteLength" : 163}, {"buffer" : 0, "byteOffset" : 235444, "byteLength" : 282672, "byteStride" : 24, "target" : 34962}, {"buffer" : 0, "byteOffset" : 518120, "byteLength" : 163}, {"buffer" : 0, "byteOffset" : 518284, "byteLength" : 163}, {"buffer" : 0, "byteOffset" : 518448, "byteLength" : 163}, {"buffer" : 0, "byteOffset" : 518612, "byteLength" : 163}], "images" : [{"mimeType" : "image/png", "bufferView" : 2}, {"mimeType" : "image/png", "bufferView" : 3}, {"mimeType" : "image/png", "bufferView" : 4}, {"mimeType" : "image/png", "bufferView" : 5}, {"mimeType" : "image/png", "bufferView" : 7}, {"mimeType" : "image/png", "bufferView" : 8}, {"mimeType" : "image/png", "bufferView" : 9}, {"mimeType" : "image/png", "bufferView" : 10}], "materials" : [{"extensions" : {"KHR_materials_pbrSpecularGlossiness" : {"diffuseFactor" : [1, 1, 1, 1], "diffuseTexture" : {"index" : 0, "texCoord" : 0}, "specularFactor" : [1, 1, 1], "glossinessFactor" : 1, "specularGlossinessTexture" : {"index" : 1, "texCoord" : 0, "scale" : 1}}}, "pbrMetallicRoughness" : {"baseColorFactor" : [1, 1, 1, 1], "baseColorTexture" : {"index" : 2, "texCoord" : 0}, "metallicFactor" : 1, "roughnessFactor" : 1, "metallicRoughnessTexture" : {"index" : 3, "texCoord" : 0}}, "emissiveFactor" : [0, 0, 0], "alphaMode" : "OPAQUE", "doubleSided" : true}, {"extensions" : {"KHR_materials_pbrSpecularGlossiness" : {"diffuseFactor" : [1, 1, 1, 1], "diffuseTexture" : {"index" : 4, "texCoord" : 0}, "specularFactor" : [1, 1, 1], "glossinessFactor" : 1, "specularGlossinessTexture" : {"index" : 5, "texCoord" : 0, "scale" : 1}}}, "pbrMetallicRoughness" : {"baseColorFactor" : [1, 1, 1, 1], "baseColorTexture" : {"index" : 6, "texCoord" : 0}, "metallicFactor" : 1, "roughnessFactor" : 1, "metallicRoughnessTexture" : {"index" : 7, "texCoord" : 0}}, "emissiveFactor" : [0, 0, 0], "alphaMode" : "OPAQUE", "doubleSided" : true}], "meshes" : [{"primitives" : [{"attributes" : {"POSITION" : 1, "NORMAL" : 2}, "indices" : 0, "material" : 0, "mode" : 4}]}, {"primitives" : [{"attributes" : {"POSITION" : 4, "NORMAL" : 5}, "indices" : 3, "material" : 1, "mode" : 4}]}], "nodes" : [{"matrix" : [0.8533902764320374, 0, 0, 0, 0, 1.7308113901024948E-07, -0.8533902472217265, 0, 0, 0.8533902472217265, 1.7308113901024948E-07, 0, -255.98300170898438, -114.4825668334961, 1039.787841796875, 1], "mesh" : 0, "name" : "node_id30"}, {"matrix" : [0.8533902764320374, 0, 0, 0, 0, 1.7308113901024948E-07, -0.8533902472217265, 0, 0, 0.8533902472217265, 1.7308113901024948E-07, 0, -255.98300170898438, -114.4825668334961, 1039.787841796875, 1], "mesh" : 1, "name" : "node_id32"}, {"children" : [0, 1], "matrix" : [0.0010000000474974513, 0, 0, 0, 0, 0.0010000000474974513, 0, 0, 0, 0, 0.0010000000474974513, 0, 0, 0, 0, 1], "name" : "node_id34"}, {"children" : [2], "name" : "root"}], "samplers" : [{"magFilter" : 9728, "minFilter" : 9985, "wrapS" : 10497, "wrapT" : 10497}, {"magFilter" : 9728, "minFilter" : 9985, "wrapS" : 10497, "wrapT" : 10497}, {"magFilter" : 9728, "minFilter" : 9985, "wrapS" : 10497, "wrapT" : 10497}, {"magFilter" : 9728, "minFilter" : 9985, "wrapS" : 10497, "wrapT" : 10497}, {"magFilter" : 9728, "minFilter" : 9985, "wrapS" : 10497, "wrapT" : 10497}, {"magFilter" : 9728, "minFilter" : 9985, "wrapS" : 10497, "wrapT" : 10497}, {"magFilter" : 9728, "minFilter" : 9985, "wrapS" : 10497, "wrapT" : 10497}, {"magFilter" : 9728, "minFilter" : 9985, "wrapS" : 10497, "wrapT" : 10497}], "scene" : 0, "scenes" : [{"nodes" : [3]}], "textures" : [{"sampler" : 0, "source" : 0}, {"sampler" : 1, "source" : 1}, {"sampler" : 2, "source" : 2}, {"sampler" : 3, "source" : 3}, {"sampler" : 4, "source" : 4}, {"sampler" : 5, "source" : 5}, {"sampler" : 6, "source" : 6}, {"sampler" : 7, "source" : 7}]}